solid OpenSCAD_Model
  facet normal 0.99863 0.0523295 0
    outer loop
      vertex 1.55 0 27
      vertex 1.54151 0.162019 -27
      vertex 1.54151 0.162019 27
    endloop
  endfacet
  facet normal 0.99863 0.0523295 0
    outer loop
      vertex 1.54151 0.162019 -27
      vertex 1.55 0 27
      vertex 1.55 0 -27
    endloop
  endfacet
  facet normal 0.987688 0.156434 0
    outer loop
      vertex 1.54151 0.162019 27
      vertex 1.51613 0.322263 -27
      vertex 1.51613 0.322263 27
    endloop
  endfacet
  facet normal 0.987688 0.156434 0
    outer loop
      vertex 1.51613 0.322263 -27
      vertex 1.54151 0.162019 27
      vertex 1.54151 0.162019 -27
    endloop
  endfacet
  facet normal 0.965928 0.258813 0
    outer loop
      vertex 1.51613 0.322263 27
      vertex 1.47414 0.478976 -27
      vertex 1.47414 0.478976 27
    endloop
  endfacet
  facet normal 0.965928 0.258813 0
    outer loop
      vertex 1.47414 0.478976 -27
      vertex 1.51613 0.322263 27
      vertex 1.51613 0.322263 -27
    endloop
  endfacet
  facet normal 0.933585 0.358355 0
    outer loop
      vertex 1.47414 0.478976 27
      vertex 1.416 0.630442 -27
      vertex 1.416 0.630442 27
    endloop
  endfacet
  facet normal 0.933585 0.358355 0
    outer loop
      vertex 1.416 0.630442 -27
      vertex 1.47414 0.478976 27
      vertex 1.47414 0.478976 -27
    endloop
  endfacet
  facet normal 0.890997 0.45401 0
    outer loop
      vertex 1.416 0.630442 27
      vertex 1.34234 0.775 -27
      vertex 1.34234 0.775 27
    endloop
  endfacet
  facet normal 0.890997 0.45401 0
    outer loop
      vertex 1.34234 0.775 -27
      vertex 1.416 0.630442 27
      vertex 1.416 0.630442 -27
    endloop
  endfacet
  facet normal 0.838679 0.544626 0
    outer loop
      vertex 1.34234 0.775 27
      vertex 1.25398 0.911067 -27
      vertex 1.25398 0.911067 27
    endloop
  endfacet
  facet normal 0.838679 0.544626 0
    outer loop
      vertex 1.25398 0.911067 -27
      vertex 1.34234 0.775 27
      vertex 1.34234 0.775 -27
    endloop
  endfacet
  facet normal 0.777116 0.629358 0
    outer loop
      vertex 1.25398 0.911067 27
      vertex 1.15187 1.03715 -27
      vertex 1.15187 1.03715 27
    endloop
  endfacet
  facet normal 0.777116 0.629358 0
    outer loop
      vertex 1.15187 1.03715 -27
      vertex 1.25398 0.911067 27
      vertex 1.25398 0.911067 -27
    endloop
  endfacet
  facet normal 0.707107 0.707107 0
    outer loop
      vertex 1.15187 1.03715 27
      vertex 1.03715 1.15187 -27
      vertex 1.03715 1.15187 27
    endloop
  endfacet
  facet normal 0.707107 0.707107 0
    outer loop
      vertex 1.03715 1.15187 -27
      vertex 1.15187 1.03715 27
      vertex 1.15187 1.03715 -27
    endloop
  endfacet
  facet normal 0.629358 0.777116 -0
    outer loop
      vertex 1.03715 1.15187 -27
      vertex 0.911067 1.25398 27
      vertex 1.03715 1.15187 27
    endloop
  endfacet
  facet normal 0.629358 0.777116 0
    outer loop
      vertex 0.911067 1.25398 27
      vertex 1.03715 1.15187 -27
      vertex 0.911067 1.25398 -27
    endloop
  endfacet
  facet normal 0.544626 0.838679 -0
    outer loop
      vertex 0.911067 1.25398 -27
      vertex 0.775 1.34234 27
      vertex 0.911067 1.25398 27
    endloop
  endfacet
  facet normal 0.544626 0.838679 0
    outer loop
      vertex 0.775 1.34234 27
      vertex 0.911067 1.25398 -27
      vertex 0.775 1.34234 -27
    endloop
  endfacet
  facet normal 0.45401 0.890997 -0
    outer loop
      vertex 0.775 1.34234 -27
      vertex 0.630442 1.416 27
      vertex 0.775 1.34234 27
    endloop
  endfacet
  facet normal 0.45401 0.890997 0
    outer loop
      vertex 0.630442 1.416 27
      vertex 0.775 1.34234 -27
      vertex 0.630442 1.416 -27
    endloop
  endfacet
  facet normal 0.358355 0.933585 -0
    outer loop
      vertex 0.630442 1.416 -27
      vertex 0.478976 1.47414 27
      vertex 0.630442 1.416 27
    endloop
  endfacet
  facet normal 0.358355 0.933585 0
    outer loop
      vertex 0.478976 1.47414 27
      vertex 0.630442 1.416 -27
      vertex 0.478976 1.47414 -27
    endloop
  endfacet
  facet normal 0.258813 0.965928 -0
    outer loop
      vertex 0.478976 1.47414 -27
      vertex 0.322263 1.51613 27
      vertex 0.478976 1.47414 27
    endloop
  endfacet
  facet normal 0.258813 0.965928 0
    outer loop
      vertex 0.322263 1.51613 27
      vertex 0.478976 1.47414 -27
      vertex 0.322263 1.51613 -27
    endloop
  endfacet
  facet normal 0.156434 0.987688 -0
    outer loop
      vertex 0.322263 1.51613 -27
      vertex 0.162019 1.54151 27
      vertex 0.322263 1.51613 27
    endloop
  endfacet
  facet normal 0.156434 0.987688 0
    outer loop
      vertex 0.162019 1.54151 27
      vertex 0.322263 1.51613 -27
      vertex 0.162019 1.54151 -27
    endloop
  endfacet
  facet normal 0.0523295 0.99863 -0
    outer loop
      vertex 0.162019 1.54151 -27
      vertex 0 1.55 27
      vertex 0.162019 1.54151 27
    endloop
  endfacet
  facet normal 0.0523295 0.99863 0
    outer loop
      vertex 0 1.55 27
      vertex 0.162019 1.54151 -27
      vertex 0 1.55 -27
    endloop
  endfacet
  facet normal -0.0523295 0.99863 0
    outer loop
      vertex 0 1.55 -27
      vertex -0.162019 1.54151 27
      vertex 0 1.55 27
    endloop
  endfacet
  facet normal -0.0523295 0.99863 0
    outer loop
      vertex -0.162019 1.54151 27
      vertex 0 1.55 -27
      vertex -0.162019 1.54151 -27
    endloop
  endfacet
  facet normal -0.156434 0.987688 0
    outer loop
      vertex -0.162019 1.54151 -27
      vertex -0.322263 1.51613 27
      vertex -0.162019 1.54151 27
    endloop
  endfacet
  facet normal -0.156434 0.987688 0
    outer loop
      vertex -0.322263 1.51613 27
      vertex -0.162019 1.54151 -27
      vertex -0.322263 1.51613 -27
    endloop
  endfacet
  facet normal -0.258813 0.965928 0
    outer loop
      vertex -0.322263 1.51613 -27
      vertex -0.478976 1.47414 27
      vertex -0.322263 1.51613 27
    endloop
  endfacet
  facet normal -0.258813 0.965928 0
    outer loop
      vertex -0.478976 1.47414 27
      vertex -0.322263 1.51613 -27
      vertex -0.478976 1.47414 -27
    endloop
  endfacet
  facet normal -0.358355 0.933585 0
    outer loop
      vertex -0.478976 1.47414 -27
      vertex -0.630442 1.416 27
      vertex -0.478976 1.47414 27
    endloop
  endfacet
  facet normal -0.358355 0.933585 0
    outer loop
      vertex -0.630442 1.416 27
      vertex -0.478976 1.47414 -27
      vertex -0.630442 1.416 -27
    endloop
  endfacet
  facet normal -0.45401 0.890997 0
    outer loop
      vertex -0.630442 1.416 -27
      vertex -0.775 1.34234 27
      vertex -0.630442 1.416 27
    endloop
  endfacet
  facet normal -0.45401 0.890997 0
    outer loop
      vertex -0.775 1.34234 27
      vertex -0.630442 1.416 -27
      vertex -0.775 1.34234 -27
    endloop
  endfacet
  facet normal -0.544626 0.838679 0
    outer loop
      vertex -0.775 1.34234 -27
      vertex -0.911067 1.25398 27
      vertex -0.775 1.34234 27
    endloop
  endfacet
  facet normal -0.544626 0.838679 0
    outer loop
      vertex -0.911067 1.25398 27
      vertex -0.775 1.34234 -27
      vertex -0.911067 1.25398 -27
    endloop
  endfacet
  facet normal -0.629358 0.777116 0
    outer loop
      vertex -0.911067 1.25398 -27
      vertex -1.03715 1.15187 27
      vertex -0.911067 1.25398 27
    endloop
  endfacet
  facet normal -0.629358 0.777116 0
    outer loop
      vertex -1.03715 1.15187 27
      vertex -0.911067 1.25398 -27
      vertex -1.03715 1.15187 -27
    endloop
  endfacet
  facet normal -0.707107 0.707107 0
    outer loop
      vertex -1.15187 1.03715 -27
      vertex -1.03715 1.15187 27
      vertex -1.03715 1.15187 -27
    endloop
  endfacet
  facet normal -0.707107 0.707107 0
    outer loop
      vertex -1.03715 1.15187 27
      vertex -1.15187 1.03715 -27
      vertex -1.15187 1.03715 27
    endloop
  endfacet
  facet normal -0.777116 0.629358 0
    outer loop
      vertex -1.25398 0.911067 -27
      vertex -1.15187 1.03715 27
      vertex -1.15187 1.03715 -27
    endloop
  endfacet
  facet normal -0.777116 0.629358 0
    outer loop
      vertex -1.15187 1.03715 27
      vertex -1.25398 0.911067 -27
      vertex -1.25398 0.911067 27
    endloop
  endfacet
  facet normal -0.838679 0.544626 0
    outer loop
      vertex -1.34234 0.775 -27
      vertex -1.25398 0.911067 27
      vertex -1.25398 0.911067 -27
    endloop
  endfacet
  facet normal -0.838679 0.544626 0
    outer loop
      vertex -1.25398 0.911067 27
      vertex -1.34234 0.775 -27
      vertex -1.34234 0.775 27
    endloop
  endfacet
  facet normal -0.890997 0.45401 0
    outer loop
      vertex -1.416 0.630442 -27
      vertex -1.34234 0.775 27
      vertex -1.34234 0.775 -27
    endloop
  endfacet
  facet normal -0.890997 0.45401 0
    outer loop
      vertex -1.34234 0.775 27
      vertex -1.416 0.630442 -27
      vertex -1.416 0.630442 27
    endloop
  endfacet
  facet normal -0.933585 0.358355 0
    outer loop
      vertex -1.47414 0.478976 -27
      vertex -1.416 0.630442 27
      vertex -1.416 0.630442 -27
    endloop
  endfacet
  facet normal -0.933585 0.358355 0
    outer loop
      vertex -1.416 0.630442 27
      vertex -1.47414 0.478976 -27
      vertex -1.47414 0.478976 27
    endloop
  endfacet
  facet normal -0.965928 0.258813 0
    outer loop
      vertex -1.51613 0.322263 -27
      vertex -1.47414 0.478976 27
      vertex -1.47414 0.478976 -27
    endloop
  endfacet
  facet normal -0.965928 0.258813 0
    outer loop
      vertex -1.47414 0.478976 27
      vertex -1.51613 0.322263 -27
      vertex -1.51613 0.322263 27
    endloop
  endfacet
  facet normal -0.987688 0.156434 0
    outer loop
      vertex -1.54151 0.162019 -27
      vertex -1.51613 0.322263 27
      vertex -1.51613 0.322263 -27
    endloop
  endfacet
  facet normal -0.987688 0.156434 0
    outer loop
      vertex -1.51613 0.322263 27
      vertex -1.54151 0.162019 -27
      vertex -1.54151 0.162019 27
    endloop
  endfacet
  facet normal -0.99863 0.0523295 0
    outer loop
      vertex -1.55 -0 -27
      vertex -1.54151 0.162019 27
      vertex -1.54151 0.162019 -27
    endloop
  endfacet
  facet normal -0.99863 0.0523295 0
    outer loop
      vertex -1.54151 0.162019 27
      vertex -1.55 -0 -27
      vertex -1.55 -0 27
    endloop
  endfacet
  facet normal -0.99863 -0.0523295 0
    outer loop
      vertex -1.54151 -0.162019 -27
      vertex -1.55 -0 27
      vertex -1.55 -0 -27
    endloop
  endfacet
  facet normal -0.99863 -0.0523295 0
    outer loop
      vertex -1.55 -0 27
      vertex -1.54151 -0.162019 -27
      vertex -1.54151 -0.162019 27
    endloop
  endfacet
  facet normal -0.987688 -0.156434 0
    outer loop
      vertex -1.51613 -0.322263 -27
      vertex -1.54151 -0.162019 27
      vertex -1.54151 -0.162019 -27
    endloop
  endfacet
  facet normal -0.987688 -0.156434 0
    outer loop
      vertex -1.54151 -0.162019 27
      vertex -1.51613 -0.322263 -27
      vertex -1.51613 -0.322263 27
    endloop
  endfacet
  facet normal -0.965928 -0.258813 0
    outer loop
      vertex -1.47414 -0.478976 -27
      vertex -1.51613 -0.322263 27
      vertex -1.51613 -0.322263 -27
    endloop
  endfacet
  facet normal -0.965928 -0.258813 0
    outer loop
      vertex -1.51613 -0.322263 27
      vertex -1.47414 -0.478976 -27
      vertex -1.47414 -0.478976 27
    endloop
  endfacet
  facet normal -0.933585 -0.358355 0
    outer loop
      vertex -1.416 -0.630442 -27
      vertex -1.47414 -0.478976 27
      vertex -1.47414 -0.478976 -27
    endloop
  endfacet
  facet normal -0.933585 -0.358355 0
    outer loop
      vertex -1.47414 -0.478976 27
      vertex -1.416 -0.630442 -27
      vertex -1.416 -0.630442 27
    endloop
  endfacet
  facet normal -0.890997 -0.45401 0
    outer loop
      vertex -1.34234 -0.775 -27
      vertex -1.416 -0.630442 27
      vertex -1.416 -0.630442 -27
    endloop
  endfacet
  facet normal -0.890997 -0.45401 0
    outer loop
      vertex -1.416 -0.630442 27
      vertex -1.34234 -0.775 -27
      vertex -1.34234 -0.775 27
    endloop
  endfacet
  facet normal -0.838679 -0.544626 0
    outer loop
      vertex -1.25398 -0.911067 -27
      vertex -1.34234 -0.775 27
      vertex -1.34234 -0.775 -27
    endloop
  endfacet
  facet normal -0.838679 -0.544626 0
    outer loop
      vertex -1.34234 -0.775 27
      vertex -1.25398 -0.911067 -27
      vertex -1.25398 -0.911067 27
    endloop
  endfacet
  facet normal -0.777116 -0.629358 0
    outer loop
      vertex -1.15187 -1.03715 -27
      vertex -1.25398 -0.911067 27
      vertex -1.25398 -0.911067 -27
    endloop
  endfacet
  facet normal -0.777116 -0.629358 0
    outer loop
      vertex -1.25398 -0.911067 27
      vertex -1.15187 -1.03715 -27
      vertex -1.15187 -1.03715 27
    endloop
  endfacet
  facet normal -0.707107 -0.707107 0
    outer loop
      vertex -1.03715 -1.15187 -27
      vertex -1.15187 -1.03715 27
      vertex -1.15187 -1.03715 -27
    endloop
  endfacet
  facet normal -0.707107 -0.707107 0
    outer loop
      vertex -1.15187 -1.03715 27
      vertex -1.03715 -1.15187 -27
      vertex -1.03715 -1.15187 27
    endloop
  endfacet
  facet normal -0.629358 -0.777116 0
    outer loop
      vertex -1.03715 -1.15187 -27
      vertex -0.911067 -1.25398 27
      vertex -1.03715 -1.15187 27
    endloop
  endfacet
  facet normal -0.629358 -0.777116 -0
    outer loop
      vertex -0.911067 -1.25398 27
      vertex -1.03715 -1.15187 -27
      vertex -0.911067 -1.25398 -27
    endloop
  endfacet
  facet normal -0.544626 -0.838679 0
    outer loop
      vertex -0.911067 -1.25398 -27
      vertex -0.775 -1.34234 27
      vertex -0.911067 -1.25398 27
    endloop
  endfacet
  facet normal -0.544626 -0.838679 -0
    outer loop
      vertex -0.775 -1.34234 27
      vertex -0.911067 -1.25398 -27
      vertex -0.775 -1.34234 -27
    endloop
  endfacet
  facet normal -0.45401 -0.890997 0
    outer loop
      vertex -0.775 -1.34234 -27
      vertex -0.630442 -1.416 27
      vertex -0.775 -1.34234 27
    endloop
  endfacet
  facet normal -0.45401 -0.890997 -0
    outer loop
      vertex -0.630442 -1.416 27
      vertex -0.775 -1.34234 -27
      vertex -0.630442 -1.416 -27
    endloop
  endfacet
  facet normal -0.358355 -0.933585 0
    outer loop
      vertex -0.630442 -1.416 -27
      vertex -0.478976 -1.47414 27
      vertex -0.630442 -1.416 27
    endloop
  endfacet
  facet normal -0.358355 -0.933585 -0
    outer loop
      vertex -0.478976 -1.47414 27
      vertex -0.630442 -1.416 -27
      vertex -0.478976 -1.47414 -27
    endloop
  endfacet
  facet normal -0.258813 -0.965928 0
    outer loop
      vertex -0.478976 -1.47414 -27
      vertex -0.322263 -1.51613 27
      vertex -0.478976 -1.47414 27
    endloop
  endfacet
  facet normal -0.258813 -0.965928 -0
    outer loop
      vertex -0.322263 -1.51613 27
      vertex -0.478976 -1.47414 -27
      vertex -0.322263 -1.51613 -27
    endloop
  endfacet
  facet normal -0.156434 -0.987688 0
    outer loop
      vertex -0.322263 -1.51613 -27
      vertex -0.162019 -1.54151 27
      vertex -0.322263 -1.51613 27
    endloop
  endfacet
  facet normal -0.156434 -0.987688 -0
    outer loop
      vertex -0.162019 -1.54151 27
      vertex -0.322263 -1.51613 -27
      vertex -0.162019 -1.54151 -27
    endloop
  endfacet
  facet normal -0.0523295 -0.99863 0
    outer loop
      vertex -0.162019 -1.54151 -27
      vertex -0 -1.55 27
      vertex -0.162019 -1.54151 27
    endloop
  endfacet
  facet normal -0.0523295 -0.99863 -0
    outer loop
      vertex -0 -1.55 27
      vertex -0.162019 -1.54151 -27
      vertex -0 -1.55 -27
    endloop
  endfacet
  facet normal 0.0523295 -0.99863 0
    outer loop
      vertex -0 -1.55 -27
      vertex 0.162019 -1.54151 27
      vertex -0 -1.55 27
    endloop
  endfacet
  facet normal 0.0523295 -0.99863 0
    outer loop
      vertex 0.162019 -1.54151 27
      vertex -0 -1.55 -27
      vertex 0.162019 -1.54151 -27
    endloop
  endfacet
  facet normal 0.156434 -0.987688 0
    outer loop
      vertex 0.162019 -1.54151 -27
      vertex 0.322263 -1.51613 27
      vertex 0.162019 -1.54151 27
    endloop
  endfacet
  facet normal 0.156434 -0.987688 0
    outer loop
      vertex 0.322263 -1.51613 27
      vertex 0.162019 -1.54151 -27
      vertex 0.322263 -1.51613 -27
    endloop
  endfacet
  facet normal 0.258813 -0.965928 0
    outer loop
      vertex 0.322263 -1.51613 -27
      vertex 0.478976 -1.47414 27
      vertex 0.322263 -1.51613 27
    endloop
  endfacet
  facet normal 0.258813 -0.965928 0
    outer loop
      vertex 0.478976 -1.47414 27
      vertex 0.322263 -1.51613 -27
      vertex 0.478976 -1.47414 -27
    endloop
  endfacet
  facet normal 0.358355 -0.933585 0
    outer loop
      vertex 0.478976 -1.47414 -27
      vertex 0.630442 -1.416 27
      vertex 0.478976 -1.47414 27
    endloop
  endfacet
  facet normal 0.358355 -0.933585 0
    outer loop
      vertex 0.630442 -1.416 27
      vertex 0.478976 -1.47414 -27
      vertex 0.630442 -1.416 -27
    endloop
  endfacet
  facet normal 0.45401 -0.890997 0
    outer loop
      vertex 0.630442 -1.416 -27
      vertex 0.775 -1.34234 27
      vertex 0.630442 -1.416 27
    endloop
  endfacet
  facet normal 0.45401 -0.890997 0
    outer loop
      vertex 0.775 -1.34234 27
      vertex 0.630442 -1.416 -27
      vertex 0.775 -1.34234 -27
    endloop
  endfacet
  facet normal 0.544626 -0.838679 0
    outer loop
      vertex 0.775 -1.34234 -27
      vertex 0.911067 -1.25398 27
      vertex 0.775 -1.34234 27
    endloop
  endfacet
  facet normal 0.544626 -0.838679 0
    outer loop
      vertex 0.911067 -1.25398 27
      vertex 0.775 -1.34234 -27
      vertex 0.911067 -1.25398 -27
    endloop
  endfacet
  facet normal 0.629358 -0.777116 0
    outer loop
      vertex 0.911067 -1.25398 -27
      vertex 1.03715 -1.15187 27
      vertex 0.911067 -1.25398 27
    endloop
  endfacet
  facet normal 0.629358 -0.777116 0
    outer loop
      vertex 1.03715 -1.15187 27
      vertex 0.911067 -1.25398 -27
      vertex 1.03715 -1.15187 -27
    endloop
  endfacet
  facet normal 0.707107 -0.707107 0
    outer loop
      vertex 1.03715 -1.15187 27
      vertex 1.15187 -1.03715 -27
      vertex 1.15187 -1.03715 27
    endloop
  endfacet
  facet normal 0.707107 -0.707107 0
    outer loop
      vertex 1.15187 -1.03715 -27
      vertex 1.03715 -1.15187 27
      vertex 1.03715 -1.15187 -27
    endloop
  endfacet
  facet normal 0.777116 -0.629358 0
    outer loop
      vertex 1.15187 -1.03715 27
      vertex 1.25398 -0.911067 -27
      vertex 1.25398 -0.911067 27
    endloop
  endfacet
  facet normal 0.777116 -0.629358 0
    outer loop
      vertex 1.25398 -0.911067 -27
      vertex 1.15187 -1.03715 27
      vertex 1.15187 -1.03715 -27
    endloop
  endfacet
  facet normal 0.838679 -0.544626 0
    outer loop
      vertex 1.25398 -0.911067 27
      vertex 1.34234 -0.775 -27
      vertex 1.34234 -0.775 27
    endloop
  endfacet
  facet normal 0.838679 -0.544626 0
    outer loop
      vertex 1.34234 -0.775 -27
      vertex 1.25398 -0.911067 27
      vertex 1.25398 -0.911067 -27
    endloop
  endfacet
  facet normal 0.890997 -0.45401 0
    outer loop
      vertex 1.34234 -0.775 27
      vertex 1.416 -0.630442 -27
      vertex 1.416 -0.630442 27
    endloop
  endfacet
  facet normal 0.890997 -0.45401 0
    outer loop
      vertex 1.416 -0.630442 -27
      vertex 1.34234 -0.775 27
      vertex 1.34234 -0.775 -27
    endloop
  endfacet
  facet normal 0.933585 -0.358355 0
    outer loop
      vertex 1.416 -0.630442 27
      vertex 1.47414 -0.478976 -27
      vertex 1.47414 -0.478976 27
    endloop
  endfacet
  facet normal 0.933585 -0.358355 0
    outer loop
      vertex 1.47414 -0.478976 -27
      vertex 1.416 -0.630442 27
      vertex 1.416 -0.630442 -27
    endloop
  endfacet
  facet normal 0.965928 -0.258813 0
    outer loop
      vertex 1.47414 -0.478976 27
      vertex 1.51613 -0.322263 -27
      vertex 1.51613 -0.322263 27
    endloop
  endfacet
  facet normal 0.965928 -0.258813 0
    outer loop
      vertex 1.51613 -0.322263 -27
      vertex 1.47414 -0.478976 27
      vertex 1.47414 -0.478976 -27
    endloop
  endfacet
  facet normal 0.987688 -0.156434 0
    outer loop
      vertex 1.51613 -0.322263 27
      vertex 1.54151 -0.162019 -27
      vertex 1.54151 -0.162019 27
    endloop
  endfacet
  facet normal 0.987688 -0.156434 0
    outer loop
      vertex 1.54151 -0.162019 -27
      vertex 1.51613 -0.322263 27
      vertex 1.51613 -0.322263 -27
    endloop
  endfacet
  facet normal 0.99863 -0.0523295 0
    outer loop
      vertex 1.54151 -0.162019 27
      vertex 1.55 0 -27
      vertex 1.55 0 27
    endloop
  endfacet
  facet normal 0.99863 -0.0523295 0
    outer loop
      vertex 1.55 0 -27
      vertex 1.54151 -0.162019 27
      vertex 1.54151 -0.162019 -27
    endloop
  endfacet
  facet normal 0 0 -1
    outer loop
      vertex 1.54151 -0.162019 -27
      vertex 1.54151 0.162019 -27
      vertex 1.55 0 -27
    endloop
  endfacet
  facet normal 0 0 -1
    outer loop
      vertex 1.51613 -0.322263 -27
      vertex 1.54151 0.162019 -27
      vertex 1.54151 -0.162019 -27
    endloop
  endfacet
  facet normal 0 0 -1
    outer loop
      vertex 1.51613 -0.322263 -27
      vertex 1.51613 0.322263 -27
      vertex 1.54151 0.162019 -27
    endloop
  endfacet
  facet normal 0 0 -1
    outer loop
      vertex 1.47414 -0.478976 -27
      vertex 1.51613 0.322263 -27
      vertex 1.51613 -0.322263 -27
    endloop
  endfacet
  facet normal 0 0 -1
    outer loop
      vertex 1.47414 -0.478976 -27
      vertex 1.47414 0.478976 -27
      vertex 1.51613 0.322263 -27
    endloop
  endfacet
  facet normal 0 0 -1
    outer loop
      vertex 1.416 -0.630442 -27
      vertex 1.47414 0.478976 -27
      vertex 1.47414 -0.478976 -27
    endloop
  endfacet
  facet normal 0 0 -1
    outer loop
      vertex 1.416 -0.630442 -27
      vertex 1.416 0.630442 -27
      vertex 1.47414 0.478976 -27
    endloop
  endfacet
  facet normal 0 0 -1
    outer loop
      vertex 1.34234 -0.775 -27
      vertex 1.416 0.630442 -27
      vertex 1.416 -0.630442 -27
    endloop
  endfacet
  facet normal 0 0 -1
    outer loop
      vertex 1.34234 -0.775 -27
      vertex 1.34234 0.775 -27
      vertex 1.416 0.630442 -27
    endloop
  endfacet
  facet normal 0 0 -1
    outer loop
      vertex 1.25398 -0.911067 -27
      vertex 1.34234 0.775 -27
      vertex 1.34234 -0.775 -27
    endloop
  endfacet
  facet normal 0 0 -1
    outer loop
      vertex 1.25398 -0.911067 -27
      vertex 1.25398 0.911067 -27
      vertex 1.34234 0.775 -27
    endloop
  endfacet
  facet normal 0 0 -1
    outer loop
      vertex 1.15187 -1.03715 -27
      vertex 1.25398 0.911067 -27
      vertex 1.25398 -0.911067 -27
    endloop
  endfacet
  facet normal 0 0 -1
    outer loop
      vertex 1.15187 -1.03715 -27
      vertex 1.15187 1.03715 -27
      vertex 1.25398 0.911067 -27
    endloop
  endfacet
  facet normal 0 0 -1
    outer loop
      vertex 1.03715 -1.15187 -27
      vertex 1.15187 1.03715 -27
      vertex 1.15187 -1.03715 -27
    endloop
  endfacet
  facet normal 0 0 -1
    outer loop
      vertex 1.03715 -1.15187 -27
      vertex 1.03715 1.15187 -27
      vertex 1.15187 1.03715 -27
    endloop
  endfacet
  facet normal 0 0 -1
    outer loop
      vertex 0.911067 -1.25398 -27
      vertex 1.03715 1.15187 -27
      vertex 1.03715 -1.15187 -27
    endloop
  endfacet
  facet normal 0 0 -1
    outer loop
      vertex 0.911067 -1.25398 -27
      vertex 0.911067 1.25398 -27
      vertex 1.03715 1.15187 -27
    endloop
  endfacet
  facet normal 0 0 -1
    outer loop
      vertex 0.775 -1.34234 -27
      vertex 0.911067 1.25398 -27
      vertex 0.911067 -1.25398 -27
    endloop
  endfacet
  facet normal 0 0 -1
    outer loop
      vertex 0.775 -1.34234 -27
      vertex 0.775 1.34234 -27
      vertex 0.911067 1.25398 -27
    endloop
  endfacet
  facet normal 0 0 -1
    outer loop
      vertex 0.630442 -1.416 -27
      vertex 0.775 1.34234 -27
      vertex 0.775 -1.34234 -27
    endloop
  endfacet
  facet normal 0 0 -1
    outer loop
      vertex 0.630442 -1.416 -27
      vertex 0.630442 1.416 -27
      vertex 0.775 1.34234 -27
    endloop
  endfacet
  facet normal 0 0 -1
    outer loop
      vertex 0.478976 -1.47414 -27
      vertex 0.630442 1.416 -27
      vertex 0.630442 -1.416 -27
    endloop
  endfacet
  facet normal 0 0 -1
    outer loop
      vertex 0.478976 -1.47414 -27
      vertex 0.478976 1.47414 -27
      vertex 0.630442 1.416 -27
    endloop
  endfacet
  facet normal 0 0 -1
    outer loop
      vertex 0.322263 -1.51613 -27
      vertex 0.478976 1.47414 -27
      vertex 0.478976 -1.47414 -27
    endloop
  endfacet
  facet normal 0 0 -1
    outer loop
      vertex 0.322263 -1.51613 -27
      vertex 0.322263 1.51613 -27
      vertex 0.478976 1.47414 -27
    endloop
  endfacet
  facet normal 0 0 -1
    outer loop
      vertex 0.162019 -1.54151 -27
      vertex 0.322263 1.51613 -27
      vertex 0.322263 -1.51613 -27
    endloop
  endfacet
  facet normal 0 0 -1
    outer loop
      vertex 0.162019 -1.54151 -27
      vertex 0.162019 1.54151 -27
      vertex 0.322263 1.51613 -27
    endloop
  endfacet
  facet normal 0 0 -1
    outer loop
      vertex -0 -1.55 -27
      vertex 0.162019 1.54151 -27
      vertex 0.162019 -1.54151 -27
    endloop
  endfacet
  facet normal 0 0 -1
    outer loop
      vertex -0 -1.55 -27
      vertex 0 1.55 -27
      vertex 0.162019 1.54151 -27
    endloop
  endfacet
  facet normal 0 0 -1
    outer loop
      vertex -0.162019 -1.54151 -27
      vertex 0 1.55 -27
      vertex -0 -1.55 -27
    endloop
  endfacet
  facet normal 0 0 -1
    outer loop
      vertex -0.162019 -1.54151 -27
      vertex -0.162019 1.54151 -27
      vertex 0 1.55 -27
    endloop
  endfacet
  facet normal 0 0 -1
    outer loop
      vertex -0.322263 -1.51613 -27
      vertex -0.162019 1.54151 -27
      vertex -0.162019 -1.54151 -27
    endloop
  endfacet
  facet normal 0 0 -1
    outer loop
      vertex -0.322263 -1.51613 -27
      vertex -0.322263 1.51613 -27
      vertex -0.162019 1.54151 -27
    endloop
  endfacet
  facet normal 0 0 -1
    outer loop
      vertex -0.478976 -1.47414 -27
      vertex -0.322263 1.51613 -27
      vertex -0.322263 -1.51613 -27
    endloop
  endfacet
  facet normal 0 0 -1
    outer loop
      vertex -0.478976 -1.47414 -27
      vertex -0.478976 1.47414 -27
      vertex -0.322263 1.51613 -27
    endloop
  endfacet
  facet normal 0 0 -1
    outer loop
      vertex -0.630442 -1.416 -27
      vertex -0.478976 1.47414 -27
      vertex -0.478976 -1.47414 -27
    endloop
  endfacet
  facet normal 0 0 -1
    outer loop
      vertex -0.630442 -1.416 -27
      vertex -0.630442 1.416 -27
      vertex -0.478976 1.47414 -27
    endloop
  endfacet
  facet normal 0 0 -1
    outer loop
      vertex -0.775 -1.34234 -27
      vertex -0.630442 1.416 -27
      vertex -0.630442 -1.416 -27
    endloop
  endfacet
  facet normal 0 0 -1
    outer loop
      vertex -0.775 -1.34234 -27
      vertex -0.775 1.34234 -27
      vertex -0.630442 1.416 -27
    endloop
  endfacet
  facet normal 0 0 -1
    outer loop
      vertex -0.911067 -1.25398 -27
      vertex -0.775 1.34234 -27
      vertex -0.775 -1.34234 -27
    endloop
  endfacet
  facet normal 0 0 -1
    outer loop
      vertex -0.911067 -1.25398 -27
      vertex -0.911067 1.25398 -27
      vertex -0.775 1.34234 -27
    endloop
  endfacet
  facet normal 0 0 -1
    outer loop
      vertex -1.03715 -1.15187 -27
      vertex -0.911067 1.25398 -27
      vertex -0.911067 -1.25398 -27
    endloop
  endfacet
  facet normal 0 0 -1
    outer loop
      vertex -1.03715 -1.15187 -27
      vertex -1.03715 1.15187 -27
      vertex -0.911067 1.25398 -27
    endloop
  endfacet
  facet normal 0 0 -1
    outer loop
      vertex -1.15187 -1.03715 -27
      vertex -1.03715 1.15187 -27
      vertex -1.03715 -1.15187 -27
    endloop
  endfacet
  facet normal 0 0 -1
    outer loop
      vertex -1.15187 -1.03715 -27
      vertex -1.15187 1.03715 -27
      vertex -1.03715 1.15187 -27
    endloop
  endfacet
  facet normal 0 0 -1
    outer loop
      vertex -1.25398 -0.911067 -27
      vertex -1.15187 1.03715 -27
      vertex -1.15187 -1.03715 -27
    endloop
  endfacet
  facet normal 0 0 -1
    outer loop
      vertex -1.25398 -0.911067 -27
      vertex -1.25398 0.911067 -27
      vertex -1.15187 1.03715 -27
    endloop
  endfacet
  facet normal 0 0 -1
    outer loop
      vertex -1.34234 -0.775 -27
      vertex -1.25398 0.911067 -27
      vertex -1.25398 -0.911067 -27
    endloop
  endfacet
  facet normal 0 0 -1
    outer loop
      vertex -1.34234 -0.775 -27
      vertex -1.34234 0.775 -27
      vertex -1.25398 0.911067 -27
    endloop
  endfacet
  facet normal 0 0 -1
    outer loop
      vertex -1.416 -0.630442 -27
      vertex -1.34234 0.775 -27
      vertex -1.34234 -0.775 -27
    endloop
  endfacet
  facet normal 0 0 -1
    outer loop
      vertex -1.416 -0.630442 -27
      vertex -1.416 0.630442 -27
      vertex -1.34234 0.775 -27
    endloop
  endfacet
  facet normal 0 0 -1
    outer loop
      vertex -1.47414 -0.478976 -27
      vertex -1.416 0.630442 -27
      vertex -1.416 -0.630442 -27
    endloop
  endfacet
  facet normal 0 0 -1
    outer loop
      vertex -1.47414 -0.478976 -27
      vertex -1.47414 0.478976 -27
      vertex -1.416 0.630442 -27
    endloop
  endfacet
  facet normal 0 0 -1
    outer loop
      vertex -1.51613 -0.322263 -27
      vertex -1.47414 0.478976 -27
      vertex -1.47414 -0.478976 -27
    endloop
  endfacet
  facet normal 0 0 -1
    outer loop
      vertex -1.51613 -0.322263 -27
      vertex -1.51613 0.322263 -27
      vertex -1.47414 0.478976 -27
    endloop
  endfacet
  facet normal 0 0 -1
    outer loop
      vertex -1.54151 -0.162019 -27
      vertex -1.51613 0.322263 -27
      vertex -1.51613 -0.322263 -27
    endloop
  endfacet
  facet normal 0 0 -1
    outer loop
      vertex -1.54151 -0.162019 -27
      vertex -1.54151 0.162019 -27
      vertex -1.51613 0.322263 -27
    endloop
  endfacet
  facet normal 0 -0 -1
    outer loop
      vertex -1.54151 0.162019 -27
      vertex -1.54151 -0.162019 -27
      vertex -1.55 -0 -27
    endloop
  endfacet
  facet normal 0 0 1
    outer loop
      vertex 1.54151 0.162019 27
      vertex 1.54151 -0.162019 27
      vertex 1.55 0 27
    endloop
  endfacet
  facet normal 0 0 1
    outer loop
      vertex 1.51613 0.322263 27
      vertex 1.54151 -0.162019 27
      vertex 1.54151 0.162019 27
    endloop
  endfacet
  facet normal 0 0 1
    outer loop
      vertex 1.51613 0.322263 27
      vertex 1.51613 -0.322263 27
      vertex 1.54151 -0.162019 27
    endloop
  endfacet
  facet normal 0 0 1
    outer loop
      vertex 1.47414 0.478976 27
      vertex 1.51613 -0.322263 27
      vertex 1.51613 0.322263 27
    endloop
  endfacet
  facet normal 0 0 1
    outer loop
      vertex 1.47414 0.478976 27
      vertex 1.47414 -0.478976 27
      vertex 1.51613 -0.322263 27
    endloop
  endfacet
  facet normal 0 0 1
    outer loop
      vertex 1.416 0.630442 27
      vertex 1.47414 -0.478976 27
      vertex 1.47414 0.478976 27
    endloop
  endfacet
  facet normal 0 0 1
    outer loop
      vertex 1.416 0.630442 27
      vertex 1.416 -0.630442 27
      vertex 1.47414 -0.478976 27
    endloop
  endfacet
  facet normal 0 0 1
    outer loop
      vertex 1.34234 0.775 27
      vertex 1.416 -0.630442 27
      vertex 1.416 0.630442 27
    endloop
  endfacet
  facet normal 0 0 1
    outer loop
      vertex 1.34234 0.775 27
      vertex 1.34234 -0.775 27
      vertex 1.416 -0.630442 27
    endloop
  endfacet
  facet normal 0 0 1
    outer loop
      vertex 1.25398 0.911067 27
      vertex 1.34234 -0.775 27
      vertex 1.34234 0.775 27
    endloop
  endfacet
  facet normal 0 0 1
    outer loop
      vertex 1.25398 0.911067 27
      vertex 1.25398 -0.911067 27
      vertex 1.34234 -0.775 27
    endloop
  endfacet
  facet normal 0 0 1
    outer loop
      vertex 1.15187 1.03715 27
      vertex 1.25398 -0.911067 27
      vertex 1.25398 0.911067 27
    endloop
  endfacet
  facet normal 0 0 1
    outer loop
      vertex 1.15187 1.03715 27
      vertex 1.15187 -1.03715 27
      vertex 1.25398 -0.911067 27
    endloop
  endfacet
  facet normal 0 0 1
    outer loop
      vertex 1.03715 1.15187 27
      vertex 1.15187 -1.03715 27
      vertex 1.15187 1.03715 27
    endloop
  endfacet
  facet normal 0 0 1
    outer loop
      vertex 1.03715 1.15187 27
      vertex 1.03715 -1.15187 27
      vertex 1.15187 -1.03715 27
    endloop
  endfacet
  facet normal 0 0 1
    outer loop
      vertex 0.911067 1.25398 27
      vertex 1.03715 -1.15187 27
      vertex 1.03715 1.15187 27
    endloop
  endfacet
  facet normal 0 0 1
    outer loop
      vertex 0.911067 1.25398 27
      vertex 0.911067 -1.25398 27
      vertex 1.03715 -1.15187 27
    endloop
  endfacet
  facet normal 0 0 1
    outer loop
      vertex 0.775 1.34234 27
      vertex 0.911067 -1.25398 27
      vertex 0.911067 1.25398 27
    endloop
  endfacet
  facet normal 0 0 1
    outer loop
      vertex 0.775 1.34234 27
      vertex 0.775 -1.34234 27
      vertex 0.911067 -1.25398 27
    endloop
  endfacet
  facet normal 0 0 1
    outer loop
      vertex 0.630442 1.416 27
      vertex 0.775 -1.34234 27
      vertex 0.775 1.34234 27
    endloop
  endfacet
  facet normal 0 0 1
    outer loop
      vertex 0.630442 1.416 27
      vertex 0.630442 -1.416 27
      vertex 0.775 -1.34234 27
    endloop
  endfacet
  facet normal 0 0 1
    outer loop
      vertex 0.478976 1.47414 27
      vertex 0.630442 -1.416 27
      vertex 0.630442 1.416 27
    endloop
  endfacet
  facet normal 0 0 1
    outer loop
      vertex 0.478976 1.47414 27
      vertex 0.478976 -1.47414 27
      vertex 0.630442 -1.416 27
    endloop
  endfacet
  facet normal 0 0 1
    outer loop
      vertex 0.322263 1.51613 27
      vertex 0.478976 -1.47414 27
      vertex 0.478976 1.47414 27
    endloop
  endfacet
  facet normal 0 0 1
    outer loop
      vertex 0.322263 1.51613 27
      vertex 0.322263 -1.51613 27
      vertex 0.478976 -1.47414 27
    endloop
  endfacet
  facet normal 0 0 1
    outer loop
      vertex 0.162019 1.54151 27
      vertex 0.322263 -1.51613 27
      vertex 0.322263 1.51613 27
    endloop
  endfacet
  facet normal 0 0 1
    outer loop
      vertex 0.162019 1.54151 27
      vertex 0.162019 -1.54151 27
      vertex 0.322263 -1.51613 27
    endloop
  endfacet
  facet normal 0 0 1
    outer loop
      vertex 0 1.55 27
      vertex 0.162019 -1.54151 27
      vertex 0.162019 1.54151 27
    endloop
  endfacet
  facet normal 0 0 1
    outer loop
      vertex 0 1.55 27
      vertex -0 -1.55 27
      vertex 0.162019 -1.54151 27
    endloop
  endfacet
  facet normal -0 0 1
    outer loop
      vertex -0.162019 1.54151 27
      vertex -0 -1.55 27
      vertex 0 1.55 27
    endloop
  endfacet
  facet normal 0 0 1
    outer loop
      vertex -0.162019 1.54151 27
      vertex -0.162019 -1.54151 27
      vertex -0 -1.55 27
    endloop
  endfacet
  facet normal -0 0 1
    outer loop
      vertex -0.322263 1.51613 27
      vertex -0.162019 -1.54151 27
      vertex -0.162019 1.54151 27
    endloop
  endfacet
  facet normal 0 0 1
    outer loop
      vertex -0.322263 1.51613 27
      vertex -0.322263 -1.51613 27
      vertex -0.162019 -1.54151 27
    endloop
  endfacet
  facet normal -0 0 1
    outer loop
      vertex -0.478976 1.47414 27
      vertex -0.322263 -1.51613 27
      vertex -0.322263 1.51613 27
    endloop
  endfacet
  facet normal 0 0 1
    outer loop
      vertex -0.478976 1.47414 27
      vertex -0.478976 -1.47414 27
      vertex -0.322263 -1.51613 27
    endloop
  endfacet
  facet normal -0 0 1
    outer loop
      vertex -0.630442 1.416 27
      vertex -0.478976 -1.47414 27
      vertex -0.478976 1.47414 27
    endloop
  endfacet
  facet normal 0 0 1
    outer loop
      vertex -0.630442 1.416 27
      vertex -0.630442 -1.416 27
      vertex -0.478976 -1.47414 27
    endloop
  endfacet
  facet normal -0 0 1
    outer loop
      vertex -0.775 1.34234 27
      vertex -0.630442 -1.416 27
      vertex -0.630442 1.416 27
    endloop
  endfacet
  facet normal 0 0 1
    outer loop
      vertex -0.775 1.34234 27
      vertex -0.775 -1.34234 27
      vertex -0.630442 -1.416 27
    endloop
  endfacet
  facet normal -0 0 1
    outer loop
      vertex -0.911067 1.25398 27
      vertex -0.775 -1.34234 27
      vertex -0.775 1.34234 27
    endloop
  endfacet
  facet normal 0 0 1
    outer loop
      vertex -0.911067 1.25398 27
      vertex -0.911067 -1.25398 27
      vertex -0.775 -1.34234 27
    endloop
  endfacet
  facet normal -0 0 1
    outer loop
      vertex -1.03715 1.15187 27
      vertex -0.911067 -1.25398 27
      vertex -0.911067 1.25398 27
    endloop
  endfacet
  facet normal 0 0 1
    outer loop
      vertex -1.03715 1.15187 27
      vertex -1.03715 -1.15187 27
      vertex -0.911067 -1.25398 27
    endloop
  endfacet
  facet normal -0 0 1
    outer loop
      vertex -1.15187 1.03715 27
      vertex -1.03715 -1.15187 27
      vertex -1.03715 1.15187 27
    endloop
  endfacet
  facet normal 0 0 1
    outer loop
      vertex -1.15187 1.03715 27
      vertex -1.15187 -1.03715 27
      vertex -1.03715 -1.15187 27
    endloop
  endfacet
  facet normal -0 0 1
    outer loop
      vertex -1.25398 0.911067 27
      vertex -1.15187 -1.03715 27
      vertex -1.15187 1.03715 27
    endloop
  endfacet
  facet normal 0 0 1
    outer loop
      vertex -1.25398 0.911067 27
      vertex -1.25398 -0.911067 27
      vertex -1.15187 -1.03715 27
    endloop
  endfacet
  facet normal -0 0 1
    outer loop
      vertex -1.34234 0.775 27
      vertex -1.25398 -0.911067 27
      vertex -1.25398 0.911067 27
    endloop
  endfacet
  facet normal 0 0 1
    outer loop
      vertex -1.34234 0.775 27
      vertex -1.34234 -0.775 27
      vertex -1.25398 -0.911067 27
    endloop
  endfacet
  facet normal -0 0 1
    outer loop
      vertex -1.416 0.630442 27
      vertex -1.34234 -0.775 27
      vertex -1.34234 0.775 27
    endloop
  endfacet
  facet normal 0 0 1
    outer loop
      vertex -1.416 0.630442 27
      vertex -1.416 -0.630442 27
      vertex -1.34234 -0.775 27
    endloop
  endfacet
  facet normal -0 0 1
    outer loop
      vertex -1.47414 0.478976 27
      vertex -1.416 -0.630442 27
      vertex -1.416 0.630442 27
    endloop
  endfacet
  facet normal 0 0 1
    outer loop
      vertex -1.47414 0.478976 27
      vertex -1.47414 -0.478976 27
      vertex -1.416 -0.630442 27
    endloop
  endfacet
  facet normal -0 0 1
    outer loop
      vertex -1.51613 0.322263 27
      vertex -1.47414 -0.478976 27
      vertex -1.47414 0.478976 27
    endloop
  endfacet
  facet normal 0 0 1
    outer loop
      vertex -1.51613 0.322263 27
      vertex -1.51613 -0.322263 27
      vertex -1.47414 -0.478976 27
    endloop
  endfacet
  facet normal -0 0 1
    outer loop
      vertex -1.54151 0.162019 27
      vertex -1.51613 -0.322263 27
      vertex -1.51613 0.322263 27
    endloop
  endfacet
  facet normal 0 0 1
    outer loop
      vertex -1.54151 0.162019 27
      vertex -1.54151 -0.162019 27
      vertex -1.51613 -0.322263 27
    endloop
  endfacet
  facet normal 0 -0 1
    outer loop
      vertex -1.54151 -0.162019 27
      vertex -1.54151 0.162019 27
      vertex -1.55 -0 27
    endloop
  endfacet
endsolid OpenSCAD_Model
